<svg width="130" height="38" viewBox="0 0 167 49" fill="#E50914" xmlns="http://www.w3.org/2000/svg">
<path d="M158.067 23.325L166.999 49C164.366 48.5912 161.735 48.0799 159.054 47.6206L154.022 33.4321L148.851 46.448C146.313 45.9887 143.82 45.8341 141.282 45.4774L150.356 23.0188L142.128 0H149.745L154.352 12.8612L159.289 0H166.999L158.067 23.325ZM136.11 0H129.199V44.5083C131.456 44.6614 133.806 44.7624 136.11 45.0686V0ZM123.227 43.997C116.928 43.5377 110.627 43.1305 104.187 42.9758V0H111.238V35.7285C115.282 35.8311 119.325 36.1878 123.227 36.3914V43.997ZM96.6639 17.405V25.0611H87.0269V42.4661H80.0677V0H99.8143V7.65611H87.0269V17.405H96.6639ZM68.2195 7.65611V42.8748C65.8688 42.8748 63.4715 42.8748 61.1673 42.9758V7.65611H53.8796V0H75.5538V7.65611H68.2195ZM46.2633 25.4683C43.1609 25.4683 39.4931 25.4683 36.8603 25.6229V37.0053C40.9977 36.6976 45.1351 36.3409 49.3191 36.1878V43.5377L29.8081 45.2232V0H49.3191V7.65611H36.8603V17.9653C39.5875 17.9653 43.7715 17.8122 46.2633 17.8122V25.4683ZM7.19325 21.1817V47.9268C4.65495 48.2345 2.39728 48.5912 0 49V0H6.72366L15.8911 27.8183V0H22.9434V45.8341C20.4516 46.2949 17.9133 46.448 15.2326 46.8552L7.19325 21.1817Z" fill="#E50914"/>
</svg>
